<?xml version="1.0" encoding="utf-8"?>
<!-- Generator: Adobe Illustrator 27.3.0, SVG Export Plug-In . SVG Version: 6.00 Build 0)  -->
<svg version="1.1" id="Camada_1" xmlns="http://www.w3.org/2000/svg" xmlns:xlink="http://www.w3.org/1999/xlink" x="0px" y="0px"
	 viewBox="0 0 332.2 409.6" style="enable-background:new 0 0 332.2 409.6;" xml:space="preserve">
<style type="text/css">
	.st0{fill:#FCFCFC;}
	.st1{fill:#010101;}
	.st2{fill:#030303;}
	.st3{fill:#020202;}
	.st4{fill:#FFFFFF;}
</style>
<path class="st0" d="M514.1,408.7c0,0.3,0,0.6,0,0.9c-0.8,0-1.6,0-2.4,0C512.5,409.3,513.3,409,514.1,408.7z"/>
<path class="st1" d="M238.6,409.6c0.5,0,1.1,0,1.6,0C239.7,409.6,239.1,409.6,238.6,409.6z"/>
<path class="st2" d="M442.4,278.7c0-0.5,0-1.1,0-1.6c0.4,0.3,0.8,0.5,1.2,0.8C443.1,278.1,442.8,278.4,442.4,278.7z"/>
<path class="st2" d="M435.8,261.7c-0.2-0.2-0.4-0.4-0.6-0.6C435.4,261.3,435.6,261.5,435.8,261.7z"/>
<path class="st2" d="M443,280.9c-0.2-0.2-0.4-0.4-0.6-0.6C442.6,280.5,442.8,280.7,443,280.9z"/>
<path class="st3" d="M444,325c0.2-0.3,0.4-0.6,0.6-0.9C444.4,324.4,444.2,324.7,444,325z"/>
<path class="st4" d="M312.2,51.9h-31.1V20c0-11.1-9-20-20-20H40C17.9,0,0,17.9,0,40v329.6c0,22.1,17.9,40,40,40h272.2
	c11,0,20-8.9,20-20V71.9C332.2,60.8,323.2,51.9,312.2,51.9z M38.3,51.9c-7.1,0-12.8-5.7-12.8-12.8c0-3.5,1.4-6.7,3.7-9
	c2.3-2.3,5.5-3.7,9-3.7h216.9v25.6H38.3z M217.2,154.2c0,28.3-23,51.3-51.3,51.3s-51.3-22.9-51.3-51.3c0-28.3,23-51.3,51.3-51.3
	S217.2,125.8,217.2,154.2z M255.7,320.9c0,6.6-5.4,12-12,12H88.7c-6.6,0-12-5.4-12-12v-26.5c0-35.2,28.8-63.9,63.9-63.9h51.2
	c35.2,0,63.9,28.8,63.9,63.9V320.9z"/>
</svg>
